HIERARCHY
ROOT Hips
{
	OFFSET 0.00000 0.00000 0.00000
	CHANNELS 6 Xposition Yposition Zposition Zrotation Yrotation Xrotation 
	JOINT LHipJoint
	{
		OFFSET 0 0 0
		CHANNELS 3 Zrotation Yrotation Xrotation
		JOINT LeftUpLeg
		{
			OFFSET 1.61328 -1.70571 0.84375
			CHANNELS 3 Zrotation Yrotation Xrotation
			JOINT LeftLeg
			{
				OFFSET 2.32400 -6.38513 0.00000
				CHANNELS 3 Zrotation Yrotation Xrotation
				JOINT LeftFoot
				{
					OFFSET 2.58843 -7.11166 0.00000
					CHANNELS 3 Zrotation Yrotation Xrotation
					JOINT LeftToeBase
					{
						OFFSET 0.17200 -0.47257 2.47970
						CHANNELS 3 Zrotation Yrotation Xrotation
						End Site
						{
							OFFSET 0.00000 -0.00000 1.26912
						}
					}
				}
			}
		}
	}
	JOINT RHipJoint
	{
		OFFSET 0 0 0
		CHANNELS 3 Zrotation Yrotation Xrotation
		JOINT RightUpLeg
		{
			OFFSET -1.49930 -1.70570 0.84375
			CHANNELS 3 Zrotation Yrotation Xrotation
			JOINT RightLeg
			{
				OFFSET -2.30458 -6.33178 0.00000
				CHANNELS 3 Zrotation Yrotation Xrotation
				JOINT RightFoot
				{
					OFFSET -2.62261 -7.20556 0.00000
					CHANNELS 3 Zrotation Yrotation Xrotation
					JOINT RightToeBase
					{
						OFFSET -0.18709 -0.51403 2.51340
						CHANNELS 3 Zrotation Yrotation Xrotation
						End Site
						{
							OFFSET -0.00000 -0.00000 1.28858
						}
					}
				}
			}
		}
	}
	JOINT LowerBack
	{
		OFFSET 0 0 0
		CHANNELS 3 Zrotation Yrotation Xrotation
		JOINT Spine
		{
			OFFSET -0.03798 2.19274 -0.19881
			CHANNELS 3 Zrotation Yrotation Xrotation
			JOINT Spine1
			{
				OFFSET -0.00024 2.19460 0.05248
				CHANNELS 3 Zrotation Yrotation Xrotation
				JOINT Neck
				{
					OFFSET 0 0 0
					CHANNELS 3 Zrotation Yrotation Xrotation
					JOINT Neck1
					{
						OFFSET -0.00746 1.82323 0.17286
						CHANNELS 3 Zrotation Yrotation Xrotation
						JOINT Head
						{
							OFFSET 0.11826 1.82121 -0.27841
							CHANNELS 3 Zrotation Yrotation Xrotation
							End Site
							{
								OFFSET 0.03496 1.85543 -0.11495
							}
						}
					}
				}
				JOINT LeftShoulder
				{
					OFFSET 0 0 0
					CHANNELS 3 Zrotation Yrotation Xrotation
					JOINT LeftArm
					{
						OFFSET 3.71926 0.78840 0.25473
						CHANNELS 3 Zrotation Yrotation Xrotation
						JOINT LeftForeArm
						{
							OFFSET 5.37587 -0.00000 0.00000
							CHANNELS 3 Zrotation Yrotation Xrotation
							JOINT LeftHand
							{
								OFFSET 3.35977 -0.00000 0.00000
								CHANNELS 3 Zrotation Yrotation Xrotation
								JOINT LeftFingerBase
								{
									OFFSET 0 0 0
									CHANNELS 3 Zrotation Yrotation Xrotation
									JOINT LeftHandIndex1
									{
										OFFSET 0.56186 -0.00000 0.00000
										CHANNELS 3 Zrotation Yrotation Xrotation
										End Site
										{
											OFFSET 0.45299 -0.00000 0.00000
										}
									}
								}
								JOINT LThumb
								{
									OFFSET 0 0 0
									CHANNELS 3 Zrotation Yrotation Xrotation
									End Site
									{
										OFFSET 0.45990 -0.00000 0.45990
									}
								}
							}
						}
					}
				}
				JOINT RightShoulder
				{
					OFFSET 0 0 0
					CHANNELS 3 Zrotation Yrotation Xrotation
					JOINT RightArm
					{
						OFFSET -3.65136 0.56074 0.01624
						CHANNELS 3 Zrotation Yrotation Xrotation
						JOINT RightForeArm
						{
							OFFSET -5.22819 -0.00000 0.00000
							CHANNELS 3 Zrotation Yrotation Xrotation
							JOINT RightHand
							{
								OFFSET -3.40764 -0.00000 0.00000
								CHANNELS 3 Zrotation Yrotation Xrotation
								JOINT RightFingerBase
								{
									OFFSET 0 0 0
									CHANNELS 3 Zrotation Yrotation Xrotation
									JOINT RightHandIndex1
									{
										OFFSET -0.58325 -0.00000 0.00000
										CHANNELS 3 Zrotation Yrotation Xrotation
										End Site
										{
											OFFSET -0.47024 -0.00000 0.00000
										}
									}
								}
								JOINT RThumb
								{
									OFFSET 0 0 0
									CHANNELS 3 Zrotation Yrotation Xrotation
									End Site
									{
										OFFSET -0.47742 -0.00000 0.47742
									}
								}
							}
						}
					}
				}
			}
		}
	}
}
MOTION
Frames: 5
Frame Time: .0083333
-31.6572 15.8472 -4.7476 -1.2011 61.6079 1069.3400 0.0000 0.0000 0.0000 -20.9016 14.8846 -8.5208 4.7641 13.1131 39.7932 2.4765 -8.1860 -28.3544 0.0005 0.1438 0.3950 0.0000 0.0000 0.0000 16.2046 0.8694 -30.2226 -10.4942 -17.6785 61.1277 -0.9214 2.1278 -17.5477 -0.0015 -0.2469 0.6785 0.4123 5.9240 5.2594 -0.2251 7.9315 1.5672 -0.9448 3.9722 -1.2250 -2.0041 -2.0483 -10.2891 5.0062 -3.1411 13.7851 1.6587 -1.2148 5.9777 -0.0000 0.0000 0.0000 -43.3738 11.1154 14.8730 48.5052 -52.3746 -24.9853 -0.0000 0.0000 -32.5241 33.6343 26.0097 16.2637 -7.1250 0.0000 -0.0000 4.5351 60.2955 1.6940 -0.0000 0.0000 0.0000 82.4086 18.0545 55.1299 -16.1050 25.6628 -3.6913 0.0000 -0.0000 -0.1987 -21.3085 3.9197 -1.5274 7.1250 -0.0000 -0.0000 4.0237 -25.7710 1.8784
-31.4227 15.8215 -4.7196 0.8071 61.2154 1069.9600 0.0000 0.0000 0.0000 -21.6476 16.6790 -6.1607 4.4870 12.7817 38.5567 2.4121 -8.5911 -27.9527 0.0277 1.0751 2.9554 0.0000 0.0000 0.0000 14.3820 -0.5138 -29.8361 -9.2350 -16.9566 56.8992 -1.2332 1.5542 -20.5393 -0.0060 -0.4993 1.3721 -0.2338 5.8663 4.7566 -0.1896 7.8188 1.2229 -0.5229 3.9130 -1.3931 -2.1248 -1.9531 -10.7381 4.7129 -2.9790 14.9766 1.5997 -1.1388 6.4232 0.0000 -0.0000 0.0000 -40.4585 9.3877 14.0826 47.3377 -51.8636 -24.0638 -0.0000 0.0000 -31.5159 33.3707 25.8286 16.0113 -7.1250 0.0000 -0.0000 4.2552 60.0258 1.5618 0.0000 -0.0000 0.0000 82.5747 19.9025 56.6459 -15.8061 25.2571 -3.5628 0.0000 0.0000 0.1140 -20.2994 3.9299 -1.4522 7.1250 -0.0000 -0.0000 4.7860 -25.7871 2.2347
-31.1910 15.7959 -4.6871 2.7272 60.8376 1070.5700 0.0000 0.0000 0.0000 -22.3925 18.2000 -3.7960 4.2146 12.4407 37.3093 2.3440 -8.7626 -27.5361 0.0702 1.7097 4.7040 0.0000 0.0000 0.0000 12.6241 -1.4212 -29.3349 -7.9843 -16.1077 52.5060 -1.5851 0.7158 -23.6015 -0.0190 -0.8905 2.4476 -0.8741 5.8022 4.1718 -0.1757 7.7036 0.8488 -0.1186 3.8556 -1.5395 -2.1499 -1.8313 -11.2044 4.4363 -2.7861 16.0053 1.5337 -1.0472 6.8226 0.0000 0.0000 0.0000 -37.5982 7.4779 13.4966 46.5403 -51.5011 -23.4381 -0.0000 0.0000 -30.7394 32.9531 25.6003 15.6476 -7.1250 0.0000 -0.0000 3.8036 59.6654 1.3631 0.0000 0.0000 0.0000 82.8006 21.7018 58.2928 -15.6456 25.0377 -3.4946 0.0000 0.0000 0.4976 -19.2554 3.9588 -1.3815 7.1250 -0.0000 -0.0000 5.5737 -25.7825 2.6061
-30.9625 15.7681 -4.6506 4.3616 60.4159 1071.0000 0.0000 0.0000 0.0000 -23.0526 19.4803 -1.4502 3.9554 12.1009 36.0898 2.3023 -8.6730 -27.2843 0.1042 2.0811 5.7299 0.0000 0.0000 0.0000 10.9950 -1.7292 -28.7116 -6.8543 -15.2080 48.3211 -1.9503 -0.2126 -26.5173 -0.0500 -1.4424 3.9670 -1.3946 5.7430 3.4956 -0.1533 7.6078 0.4594 0.2374 3.8104 -1.6335 -2.1213 -1.6827 -11.6121 4.2057 -2.5627 16.7642 1.4768 -0.9416 7.1277 -0.0000 0.0000 0.0000 -34.8058 5.3851 13.1100 46.0517 -51.2734 -23.0564 -0.0000 0.0000 -30.2463 32.3986 25.3560 15.2033 -7.1250 0.0000 -0.0000 3.1995 59.2550 1.1149 -0.0000 0.0000 0.0000 83.0870 23.4784 59.9682 -15.6118 24.9915 -3.4803 0.0000 0.0000 0.8668 -18.2582 4.0203 -1.3250 7.1250 -0.0000 -0.0000 6.3238 -25.7412 2.9669
-30.7367 15.7410 -4.6122 5.5998 59.9310 1071.1300 0.0000 0.0000 0.0000 -23.5798 20.5722 0.8618 3.7138 11.7695 34.9215 2.2964 -8.3557 -27.2575 0.1186 2.2202 6.1145 0.0000 0.0000 0.0000 9.5164 -1.4196 -27.9622 -5.9114 -14.3419 44.6250 -2.3225 -1.1408 -29.2653 -0.1035 -2.0743 5.7110 -1.7181 5.6923 2.7309 -0.1039 7.5383 0.0674 0.5223 3.7792 -1.6578 -2.0884 -1.5188 -11.8974 4.0578 -2.3255 17.2038 1.4473 -0.8298 7.3105 0.0000 -0.0000 0.0000 -32.1001 3.1043 12.9021 45.7584 -51.1347 -22.8277 -0.0000 0.0000 -29.9486 31.6691 25.0765 14.6518 -7.1250 0.0000 -0.0000 2.4086 58.7657 0.8108 0.0000 -0.0000 0.0000 83.4326 25.2349 61.5912 -15.6821 25.0877 -3.5101 0.0000 0.0000 1.1556 -17.4236 4.1336 -1.2959 7.1250 -0.0000 -0.0000 6.9478 -25.6415 3.2798
